<?xml version="1.0" encoding="utf-8"?><svg xmlns="http://www.w3.org/2000/svg" xmlns:xlink="http://www.w3.org/1999/xlink"><symbol viewBox="0 0 24 24" id="Clock" xmlns="http://www.w3.org/2000/svg"><path d="M22 12c0 5.52-4.48 10-10 10S2 17.52 2 12 6.48 2 12 2s10 4.48 10 10Z"/><path d="m15.71 15.18-3.1-1.85c-.54-.32-.98-1.09-.98-1.72v-4.1"/></symbol><symbol viewBox="0 0 24 24" id="arrow-left" xmlns="http://www.w3.org/2000/svg"><path fill-rule="evenodd" clip-rule="evenodd" d="M10.53 5.47a.75.75 0 0 0-1.06 0l-4 4a.75.75 0 0 0 0 1.06l4 4a.75.75 0 1 0 1.06-1.06L7.06 10l3.47-3.47a.75.75 0 0 0 0-1.06Z"/><path fill-rule="evenodd" clip-rule="evenodd" d="M15 10.75c.604 0 1.179.233 1.6.64.419.407.65.954.65 1.52V18a.75.75 0 0 0 1.5 0v-5.09c0-.979-.4-1.912-1.107-2.596A3.798 3.798 0 0 0 15 9.25H6a.75.75 0 0 0 0 1.5h9Z"/></symbol><symbol viewBox="0 0 24 24" id="arrow-right" xmlns="http://www.w3.org/2000/svg"><path d="m14 14 4-4-4-4"/><path d="M6 18v-5.09c0-.772.316-1.512.879-2.058A3.048 3.048 0 0 1 9 10h9"/></symbol><symbol viewBox="0 0 24 24" id="arrow-up" xmlns="http://www.w3.org/2000/svg"><path d="M12 19V5M19 12l-7-7-7 7"/></symbol><symbol viewBox="0 0 28 28" id="border" xmlns="http://www.w3.org/2000/svg"><path d="M8.666 2h-2.4c-1.496 0-2.242 0-2.813.29-.502.254-.909.661-1.164 1.163C2 4.023 2 4.77 2 6.264v2.4M8.666 26h-2.4c-1.496 0-2.242 0-2.813-.29a2.649 2.649 0 0 1-1.164-1.163C2 23.977 2 23.23 2 21.736v-2.4M26 8.668v-2.4c0-1.496 0-2.241-.29-2.812a2.649 2.649 0 0 0-1.163-1.164c-.571-.29-1.317-.29-2.812-.29h-2.4M26 19.332v2.4c0 1.496 0 2.241-.29 2.812-.254.502-.661.91-1.163 1.164-.571.29-1.317.29-2.812.29h-2.4"/></symbol><symbol viewBox="0 0 24 24" id="close" xmlns="http://www.w3.org/2000/svg"><path d="m12 10.586 4.95-4.95 1.414 1.415-4.95 4.95 4.95 4.95-1.415 1.414-4.95-4.95-4.949 4.95-1.414-1.415 4.95-4.95-4.95-4.95L7.05 5.638l4.95 4.95Z"/></symbol><symbol viewBox="0 0 24 24" id="down" xmlns="http://www.w3.org/2000/svg"><path d="M12 5v14M19 12l-7 7-7-7"/></symbol><symbol viewBox="0 0 23 24" id="flame" xmlns="http://www.w3.org/2000/svg"><path d="M15.716 2.9A91.499 91.499 0 0 1 13.265.768a2.952 2.952 0 0 0-2.379-.742 2.845 2.845 0 0 0-2.031 1.3 20.372 20.372 0 0 0-2.492 6.45 6.125 6.125 0 0 1-.477-.816 2 2 0 0 0-3.3-.473A9.066 9.066 0 0 0 0 12.908 10.98 10.98 0 0 0 8.223 23.64c.907.229 1.84.347 2.775.352.03 0 .35-.003.479-.012 5.97-.193 10.707-5.093 10.7-11.066-.005-4.53-2.997-7.07-6.46-10.014Zm-4.742 19.085a3.766 3.766 0 0 1-2.035-.806c-.87-.615-1.445-1.517-1.582-2.557-.17-1.622.83-3.743 2.873-6.139.214-.25.527-.394.857-.392.325-.002.634.14.843.39 1.872 2.222 2.9 4.272 2.9 5.773-.006 1.972-1.548 3.532-3.51 3.722a1.892 1.892 0 0 1-.347.01Zm5.689-1.902c-.06.046-.124.083-.184.127.23-.627.35-1.29.35-1.958 0-2.527-1.835-5.235-3.372-7.062a3.1 3.1 0 0 0-2.366-1.1h-.005a3.117 3.117 0 0 0-2.375 1.093c-2.445 2.864-3.568 5.437-3.338 7.648.054.513.185 1.015.389 1.49a9.094 9.094 0 0 1-3.758-7.413 7.062 7.062 0 0 1 2.083-5.08c.23.48.507.935.827 1.361a1.847 1.847 0 0 0 1.905.7 1.9 1.9 0 0 0 1.452-1.474 18.654 18.654 0 0 1 2.268-6.022.842.842 0 0 1 .61-.384c.28-.038.561.05.77.241.857.78 1.7 1.5 2.5 2.177 3.337 2.835 5.75 4.883 5.75 8.487a9.033 9.033 0 0 1-3.503 7.171l-.003-.002Z"/></symbol><symbol viewBox="0 0 25 24" id="icon--marker" xmlns="http://www.w3.org/2000/svg"><g clip-path="url(#ma)"><path d="M12.177 0a10.011 10.011 0 0 0-10 10c0 5.282 8.4 12.533 9.354 13.343"/><path d="M12.177 13a3 3 0 1 0 0-6 3 3 0 0 0 0 6Z"/></g><defs><clipPath id="ma"><path transform="translate(.177)" d="M0 0h24v24H0z"/></clipPath></defs></symbol><symbol viewBox="0 0 25 24" id="icon--time-fast" xmlns="http://www.w3.org/2000/svg"><g clip-path="url(#na)"><path d="M10.177 23a1 1 0 0 1-1 1h-8a1 1 0 0 1 0-2h8a1 1 0 0 1 1 1ZM1.177 20h6a1 1 0 0 0 0-2h-6a1 1 0 0 0 0 2ZM1.177 16h4a1 1 0 0 0 0-2h-4a1 1 0 0 0 0 2Z"/><path d="M12.177 0a12 12 0 0 0-12 12c0 .061.008.12.009.181.317-.116.652-.178.99-.181h4a2.99 2.99 0 0 1 2.78 4.116 2.974 2.974 0 0 1 2 4 2.949 2.949 0 0 1 2.04 3.875c.06 0 .12.009.18.009a12 12 0 0 0 0-24Zm3.707 15.707a1 1 0 0 1-1.415 0l-3-3a1 1 0 0 1-.292-.707V7a1 1 0 0 1 2 0v4.586l2.707 2.707a1 1 0 0 1 0 1.414Z"/></g><defs><clipPath id="na"><path transform="translate(.177)" d="M0 0h24v24H0z"/></clipPath></defs></symbol><symbol viewBox="0 0 25 24" id="icon--wallet" xmlns="http://www.w3.org/2000/svg"><g clip-path="url(#oa)"><path d="M21.177 6h-16a3.012 3.012 0 0 1-2.235-.999A2.995 2.995 0 0 1 5.177 4h18c1.308-.006 1.306-1.995 0-2h-18a5 5 0 0 0-5 5v10a5 5 0 0 0 5 5h16a3 3 0 0 0 3-3V9a3 3 0 0 0-3-3Zm-1 9c-1.308-.006-1.308-1.994 0-2 1.308.006 1.308 1.994 0 2Z"/></g><defs><clipPath id="oa"><path transform="translate(.177)" d="M0 0h24v24H0z"/></clipPath></defs></symbol><symbol viewBox="0 0 24 24" id="icon--x" xmlns="http://www.w3.org/2000/svg"><path d="m12 10.586 4.95-4.95 1.414 1.415-4.95 4.95 4.95 4.95-1.415 1.414-4.95-4.95-4.949 4.95-1.414-1.415 4.95-4.95-4.95-4.95L7.05 5.638l4.95 4.95Z"/></symbol><symbol viewBox="0 0 24 24" id="location" xmlns="http://www.w3.org/2000/svg"><path d="M12 13.43a3.12 3.12 0 1 0 0-6.24 3.12 3.12 0 0 0 0 6.24Z"/><path d="M3.62 8.49c1.97-8.66 14.8-8.65 16.76.01 1.15 5.08-2.01 9.38-4.78 12.04a5.193 5.193 0 0 1-7.21 0c-2.76-2.66-5.92-6.97-4.77-12.05Z"/></symbol><symbol viewBox="0 0 25 24" id="marker" xmlns="http://www.w3.org/2000/svg"><g clip-path="url(#ja)"><path d="M12.177 0a10.011 10.011 0 0 0-10 10c0 5.282 8.4 12.533 9.354 13.343"/><path d="M12.177 13a3 3 0 1 0 0-6 3 3 0 0 0 0 6Z"/></g><defs><clipPath id="ja"><path transform="translate(.177)" d="M0 0h24v24H0z"/></clipPath></defs></symbol><symbol viewBox="0 0 25 24" id="time" xmlns="http://www.w3.org/2000/svg"><g clip-path="url(#ka)"><path d="M10.177 23a1 1 0 0 1-1 1h-8a1 1 0 0 1 0-2h8a1 1 0 0 1 1 1ZM1.177 20h6a1 1 0 0 0 0-2h-6a1 1 0 0 0 0 2ZM1.177 16h4a1 1 0 0 0 0-2h-4a1 1 0 0 0 0 2Z"/><path d="M12.177 0a12 12 0 0 0-12 12c0 .061.008.12.009.181.317-.116.652-.178.99-.181h4a2.99 2.99 0 0 1 2.78 4.116 2.974 2.974 0 0 1 2 4 2.949 2.949 0 0 1 2.04 3.875c.06 0 .12.009.18.009a12 12 0 0 0 0-24Zm3.707 15.707a1 1 0 0 1-1.415 0l-3-3a1 1 0 0 1-.292-.707V7a1 1 0 0 1 2 0v4.586l2.707 2.707a1 1 0 0 1 0 1.414Z"/></g><defs><clipPath id="ka"><path transform="translate(.177)" d="M0 0h24v24H0z"/></clipPath></defs></symbol><symbol viewBox="0 0 25 24" id="wallet" xmlns="http://www.w3.org/2000/svg"><g clip-path="url(#la)"><path d="M21.177 6h-16a3.012 3.012 0 0 1-2.235-.999A2.995 2.995 0 0 1 5.177 4h18c1.308-.006 1.306-1.995 0-2h-18a5 5 0 0 0-5 5v10a5 5 0 0 0 5 5h16a3 3 0 0 0 3-3V9a3 3 0 0 0-3-3Zm-1 9c-1.308-.006-1.308-1.994 0-2 1.308.006 1.308 1.994 0 2Z"/></g><defs><clipPath id="la"><path transform="translate(.177)" d="M0 0h24v24H0z"/></clipPath></defs></symbol></svg>