<svg xmlns="http://www.w3.org/2000/svg" version="1.1" xmlns:xlink="http://www.w3.org/1999/xlink" xmlns:svgjs="http://svgjs.dev/svgjs" viewBox="0 0 800 800" opacity="1"><defs><linearGradient x1="50%" y1="0%" x2="50%" y2="100%" id="nnneon-grad"><stop stop-color="hsl(105, 69%, 40%)" stop-opacity="1" offset="0%"></stop><stop stop-color="hsl(61, 69%, 60%)" stop-opacity="1" offset="100%"></stop></linearGradient><filter id="nnneon-filter" x="-100%" y="-100%" width="400%" height="400%" filterUnits="objectBoundingBox" primitiveUnits="userSpaceOnUse" color-interpolation-filters="sRGB">
	<feGaussianBlur stdDeviation="31 19" x="0%" y="0%" width="100%" height="100%" in="SourceGraphic" edgeMode="none" result="blur"></feGaussianBlur></filter><filter id="nnneon-filter2" x="-100%" y="-100%" width="400%" height="400%" filterUnits="objectBoundingBox" primitiveUnits="userSpaceOnUse" color-interpolation-filters="sRGB">
	<feGaussianBlur stdDeviation="19 19" x="0%" y="0%" width="100%" height="100%" in="SourceGraphic" edgeMode="none" result="blur"></feGaussianBlur></filter></defs><g stroke-width="16.5" stroke="url(#nnneon-grad)" fill="none"><path d="M382.5255562180415 147.97131962717555C393.3387420303174 141.72944830825995 406.6612579696826 141.72944830825995 417.4744437819585 147.97306707155371L609.525570723195 258.85365520121485C620.338756535471 265.0955265201304 627.0000145051536 276.6339017493576 627.0000145051536 289.11939183156704V510.88056809088926C627.0000145051536 523.3660581730987 620.338756535471 534.904433402326 609.525570723195 541.1480521656197L417.4744437819585 652.0286402952809C406.6612579696826 658.2705116141965 393.3387420303174 658.2705116141965 382.5255562180415 652.0268928509026L190.47442927680498 541.1463047212414C179.6612434645291 534.904433402326 172.9999854948465 523.3660581730987 172.9999854948465 510.88056809088926V289.11939183156704C172.9999854948465 276.6339017493576 179.6612434645291 265.0955265201304 190.47442927680498 258.85190775683674L382.5255562180415 147.97131962717555Z " filter="url(#nnneon-filter)"></path><path d="M396.5255562180415 147.97131962717555C407.3387420303174 141.72944830825995 420.6612579696826 141.72944830825995 431.4744437819585 147.97306707155371L623.525570723195 258.85365520121485C634.338756535471 265.0955265201304 641.0000145051536 276.6339017493576 641.0000145051536 289.11939183156704V510.88056809088926C641.0000145051536 523.3660581730987 634.338756535471 534.904433402326 623.525570723195 541.1480521656197L431.4744437819585 652.0286402952809C420.6612579696826 658.2705116141965 407.3387420303174 658.2705116141965 396.5255562180415 652.0268928509026L204.47442927680498 541.1463047212414C193.6612434645291 534.904433402326 186.9999854948465 523.3660581730987 186.9999854948465 510.88056809088926V289.11939183156704C186.9999854948465 276.6339017493576 193.6612434645291 265.0955265201304 204.47442927680498 258.85190775683674L396.5255562180415 147.97131962717555Z " filter="url(#nnneon-filter2)" opacity="0.59"></path><path d="M368.5255562180415 147.97131962717555C379.3387420303174 141.72944830825995 392.6612579696826 141.72944830825995 403.4744437819585 147.97306707155371L595.525570723195 258.85365520121485C606.338756535471 265.0955265201304 613.0000145051536 276.6339017493576 613.0000145051536 289.11939183156704V510.88056809088926C613.0000145051536 523.3660581730987 606.338756535471 534.904433402326 595.525570723195 541.1480521656197L403.4744437819585 652.0286402952809C392.6612579696826 658.2705116141965 379.3387420303174 658.2705116141965 368.5255562180415 652.0268928509026L176.47442927680498 541.1463047212414C165.6612434645291 534.904433402326 158.9999854948465 523.3660581730987 158.9999854948465 510.88056809088926V289.11939183156704C158.9999854948465 276.6339017493576 165.6612434645291 265.0955265201304 176.47442927680498 258.85190775683674L368.5255562180415 147.97131962717555Z " filter="url(#nnneon-filter2)" opacity="0.59"></path><path d="M382.5255562180415 147.97131962717555C393.3387420303174 141.72944830825995 406.6612579696826 141.72944830825995 417.4744437819585 147.97306707155371L609.525570723195 258.85365520121485C620.338756535471 265.0955265201304 627.0000145051536 276.6339017493576 627.0000145051536 289.11939183156704V510.88056809088926C627.0000145051536 523.3660581730987 620.338756535471 534.904433402326 609.525570723195 541.1480521656197L417.4744437819585 652.0286402952809C406.6612579696826 658.2705116141965 393.3387420303174 658.2705116141965 382.5255562180415 652.0268928509026L190.47442927680498 541.1463047212414C179.6612434645291 534.904433402326 172.9999854948465 523.3660581730987 172.9999854948465 510.88056809088926V289.11939183156704C172.9999854948465 276.6339017493576 179.6612434645291 265.0955265201304 190.47442927680498 258.85190775683674L382.5255562180415 147.97131962717555Z "></path></g></svg>