<?xml version="1.0" standalone="no"?>
<!DOCTYPE svg PUBLIC "-//W3C//DTD SVG 20010904//EN"
 "http://www.w3.org/TR/2001/REC-SVG-20010904/DTD/svg10.dtd">
<svg version="1.0" xmlns="http://www.w3.org/2000/svg"
 width="736.000000pt" height="736.000000pt" viewBox="0 0 736.000000 736.000000"
 preserveAspectRatio="xMidYMid meet">
<metadata>
Created by potrace 1.14, written by Peter Selinger 2001-2017
</metadata>
<g transform="translate(0.000000,736.000000) scale(0.100000,-0.100000)"
fill="#000000" stroke="none">
<path d="M1120 3680 l0 -3680 857 2 858 3 1 2050 c1 1128 4 2079 7 2115 12
133 18 186 27 240 5 30 12 71 15 90 23 142 88 355 146 476 35 73 115 206 151
252 52 64 188 190 248 229 36 24 70 47 76 51 18 15 165 79 244 106 78 26 98
31 190 48 30 5 62 12 70 15 50 17 663 26 775 11 96 -12 243 -75 316 -135 18
-15 39 -17 39 -3 0 24 147 328 225 465 182 321 385 554 759 867 17 14 26 30
22 36 -6 9 -321 169 -401 203 -65 27 -111 44 -320 120 -27 10 -70 22 -115 33
-8 2 -42 11 -75 19 -89 23 -188 42 -290 54 -124 16 -494 8 -625 -13 -113 -17
-292 -55 -340 -70 -8 -3 -15 -4 -15 -3 0 1 -17 -6 -37 -14 -21 -9 -38 -13 -38
-10 0 3 -6 1 -12 -4 -7 -5 -35 -18 -63 -28 -145 -53 -369 -179 -465 -261 -51
-45 -156 -142 -169 -158 -9 -10 -28 -30 -42 -45 -14 -14 -55 -66 -92 -116 -37
-49 -74 -99 -82 -110 -8 -10 -15 -25 -15 -31 0 -7 -4 -14 -8 -16 -8 -3 -75
-118 -103 -178 -16 -33 -17 -7 -17 475 -1 281 -1 529 -2 553 l0 42 -850 0
-850 0 0 -3680z"/>
</g>
</svg>
