<svg width="24" height="24" viewBox="0 0 24 24" fill="none" xmlns="http://www.w3.org/2000/svg">
<path fill-rule="evenodd" clip-rule="evenodd" d="M10.5303 5.46967C10.2374 5.17678 9.76256 5.17678 9.46967 5.46967L5.46967 9.46967C5.17678 9.76256 5.17678 10.2374 5.46967 10.5303L9.46967 14.5303C9.76256 14.8232 10.2374 14.8232 10.5303 14.5303C10.8232 14.2374 10.8232 13.7626 10.5303 13.4697L7.06066 10L10.5303 6.53033C10.8232 6.23744 10.8232 5.76256 10.5303 5.46967Z" fill="#AAAAAA"/>
<path fill-rule="evenodd" clip-rule="evenodd" d="M15 10.75C15.6041 10.75 16.1789 10.9829 16.5992 11.3905C17.0187 11.7973 17.25 12.344 17.25 12.9091V18C17.25 18.4142 17.5858 18.75 18 18.75C18.4142 18.75 18.75 18.4142 18.75 18V12.9091C18.75 11.9311 18.3491 10.9979 17.6434 10.3136C16.9385 9.63008 15.9872 9.25 15 9.25H6C5.58579 9.25 5.25 9.58579 5.25 10C5.25 10.4142 5.58579 10.75 6 10.75H15Z" fill="#AAAAAA"/>
</svg>
