<svg width="24" height="24" viewBox="0 0 24 24" fill="none" xmlns="http://www.w3.org/2000/svg">
<path fill-rule="evenodd" clip-rule="evenodd" d="M13.4697 5.46967C13.7626 5.17678 14.2374 5.17678 14.5303 5.46967L18.5303 9.46967C18.8232 9.76256 18.8232 10.2374 18.5303 10.5303L14.5303 14.5303C14.2374 14.8232 13.7626 14.8232 13.4697 14.5303C13.1768 14.2374 13.1768 13.7626 13.4697 13.4697L16.9393 10L13.4697 6.53033C13.1768 6.23744 13.1768 5.76256 13.4697 5.46967Z" fill="#AAAAAA"/>
<path fill-rule="evenodd" clip-rule="evenodd" d="M9 10.75C8.3959 10.75 7.8211 10.9829 7.4008 11.3905C6.9813 11.7973 6.75 12.344 6.75 12.9091V18C6.75 18.4142 6.4142 18.75 6 18.75C5.5858 18.75 5.25 18.4142 5.25 18V12.9091C5.25 11.9311 5.6509 10.9979 6.3566 10.3136C7.0615 9.63008 8.0128 9.25 9 9.25H18C18.4142 9.25 18.75 9.58579 18.75 10C18.75 10.4142 18.4142 10.75 18 10.75H9Z" fill="#AAAAAA"/>
</svg>
