<svg width="25" height="24" viewBox="0 0 25 24" fill="none" xmlns="http://www.w3.org/2000/svg">
<g clip-path="url(#clip0_626_72434)">
<path d="M12.1765 0C9.52524 0.0029116 6.9834 1.05742 5.10866 2.93215C3.23393 4.80688 2.17943 7.34873 2.17651 10C2.17651 15.282 10.5765 22.533 11.5305 23.343L-nan -nanL11.5305 23.343C11.9035 23.6582 12.4495 23.6582 12.8225 23.343L-nan -nanL12.8225 23.343C13.7765 22.533 22.1765 15.282 22.1765 10C22.1736 7.34873 21.1191 4.80688 19.2444 2.93215C17.3696 1.05742 14.8278 0.0029116 12.1765 0ZM12.1765 15C11.1876 15 10.2209 14.7068 9.39866 14.1573C8.57642 13.6079 7.93555 12.827 7.55712 11.9134C7.17868 10.9998 7.07966 9.99445 7.27259 9.02455C7.46551 8.05464 7.94172 7.16373 8.64098 6.46447C9.34024 5.7652 10.2312 5.289 11.2011 5.09607C12.171 4.90315 13.1763 5.00216 14.0899 5.3806C15.0036 5.75904 15.7845 6.3999 16.3339 7.22215C16.8833 8.04439 17.1765 9.01109 17.1765 10C17.1749 11.3256 16.6476 12.5964 15.7103 13.5338C14.773 14.4711 13.5021 14.9984 12.1765 15Z" fill="#064093"/>
<path d="M12.1765 13C13.8334 13 15.1765 11.6569 15.1765 10C15.1765 8.34315 13.8334 7 12.1765 7C10.5197 7 9.17651 8.34315 9.17651 10C9.17651 11.6569 10.5197 13 12.1765 13Z" fill="#064093"/>
</g>
<defs>
<clipPath id="clip0_626_72434">
<rect width="24" height="24" fill="white" transform="translate(0.176514)"/>
</clipPath>
</defs>
</svg>
