<svg width="25" height="24" viewBox="0 0 25 24" fill="none" xmlns="http://www.w3.org/2000/svg">
<g clip-path="url(#clip0_626_72433)">
<path d="M10.1765 23C10.1765 23.2652 10.0712 23.5196 9.88362 23.7071C9.69608 23.8946 9.44173 24 9.17651 24H1.17651C0.911297 24 0.656943 23.8946 0.469407 23.7071C0.281871 23.5196 0.176514 23.2652 0.176514 23C0.176514 22.7348 0.281871 22.4804 0.469407 22.2929C0.656943 22.1054 0.911297 22 1.17651 22H9.17651C9.44173 22 9.69608 22.1054 9.88362 22.2929C10.0712 22.4804 10.1765 22.7348 10.1765 23Z" fill="#064093"/>
<path d="M1.17651 20H7.17651C7.44173 20 7.69608 19.8946 7.88362 19.7071C8.07116 19.5196 8.17651 19.2652 8.17651 19C8.17651 18.7348 8.07116 18.4804 7.88362 18.2929C7.69608 18.1054 7.44173 18 7.17651 18H1.17651C0.911297 18 0.656943 18.1054 0.469407 18.2929C0.281871 18.4804 0.176514 18.7348 0.176514 19C0.176514 19.2652 0.281871 19.5196 0.469407 19.7071C0.656943 19.8946 0.911297 20 1.17651 20Z" fill="#064093"/>
<path d="M1.17651 16H5.17651C5.44173 16 5.69608 15.8946 5.88362 15.7071C6.07116 15.5196 6.17651 15.2652 6.17651 15C6.17651 14.7348 6.07116 14.4804 5.88362 14.2929C5.69608 14.1054 5.44173 14 5.17651 14H1.17651C0.911297 14 0.656943 14.1054 0.469407 14.2929C0.281871 14.4804 0.176514 14.7348 0.176514 15C0.176514 15.2652 0.281871 15.5196 0.469407 15.7071C0.656943 15.8946 0.911297 16 1.17651 16Z" fill="#064093"/>
<path d="M12.1765 0C8.99392 0 5.94167 1.26428 3.69123 3.51472C1.4408 5.76515 0.176514 8.8174 0.176514 12C0.176514 12.061 0.184514 12.12 0.185514 12.181C0.503109 12.0646 0.838276 12.0034 1.17651 12H5.17651C5.66741 11.9983 6.15117 12.1176 6.58507 12.3472C7.01897 12.5768 7.38966 12.9097 7.66443 13.3165C7.93919 13.7233 8.10956 14.1915 8.1605 14.6797C8.21144 15.168 8.14138 15.6612 7.95651 16.116C8.36596 16.2234 8.74776 16.417 9.07641 16.6838C9.40506 16.9506 9.67299 17.2845 9.8623 17.6631C10.0516 18.0417 10.1579 18.4564 10.1742 18.8794C10.1904 19.3024 10.1162 19.724 9.95651 20.116C10.3564 20.218 10.7305 20.4028 11.0545 20.6585C11.3785 20.9142 11.6452 21.235 11.8374 21.6003C12.0296 21.9655 12.1429 22.367 12.1702 22.7788C12.1974 23.1907 12.1379 23.6036 11.9955 23.991C12.0565 23.991 12.1155 24 12.1765 24C15.3591 24 18.4114 22.7357 20.6618 20.4853C22.9122 18.2348 24.1765 15.1826 24.1765 12C24.1765 8.8174 22.9122 5.76515 20.6618 3.51472C18.4114 1.26428 15.3591 0 12.1765 0ZM15.8835 15.707C15.696 15.8945 15.4417 15.9998 15.1765 15.9998C14.9113 15.9998 14.657 15.8945 14.4695 15.707L11.4695 12.707C11.282 12.5195 11.1766 12.2652 11.1765 12V7C11.1765 6.73478 11.2819 6.48043 11.4694 6.29289C11.6569 6.10536 11.9113 6 12.1765 6C12.4417 6 12.6961 6.10536 12.8836 6.29289C13.0712 6.48043 13.1765 6.73478 13.1765 7V11.586L15.8835 14.293C16.071 14.4805 16.1763 14.7348 16.1763 15C16.1763 15.2652 16.071 15.5195 15.8835 15.707Z" fill="#064093"/>
</g>
<defs>
<clipPath id="clip0_626_72433">
<rect width="24" height="24" fill="white" transform="translate(0.176514)"/>
</clipPath>
</defs>
</svg>
