<svg width="25" height="24" viewBox="0 0 25 24" fill="none" xmlns="http://www.w3.org/2000/svg">
<g clip-path="url(#clip0_626_72435)">
<path d="M21.1765 6H5.17651C4.31751 6 3.50451 5.628 2.94151 5.001C3.49151 4.387 4.29051 4 5.17651 4H23.1765C24.4845 3.994 24.4835 2.005 23.1765 2H5.17651C2.41551 2 0.176514 4.239 0.176514 7V17C0.176514 19.761 2.41551 22 5.17651 22H21.1765C22.8335 22 24.1765 20.657 24.1765 19V9C24.1765 7.343 22.8335 6 21.1765 6ZM20.1765 15C18.8685 14.994 18.8685 13.006 20.1765 13C21.4845 13.006 21.4845 14.994 20.1765 15Z" fill="#064093"/>
</g>
<defs>
<clipPath id="clip0_626_72435">
<rect width="24" height="24" fill="white" transform="translate(0.176514)"/>
</clipPath>
</defs>
</svg>
